<svg xmlns="http://www.w3.org/2000/svg" xmlns:xlink="http://www.w3.org/1999/xlink" width="100" zoomAndPan="magnify" viewBox="0 0 75 74.999997" height="100" preserveAspectRatio="xMidYMid meet" version="1.2"><defs><clipPath id="722d51b6c8"><path d="M 36.113281 0 L 38.886719 0 L 38.886719 14.609375 L 36.113281 14.609375 Z M 36.113281 0 "/></clipPath><clipPath id="f11bb91d65"><path d="M 36.113281 60.390625 L 38.886719 60.390625 L 38.886719 75 L 36.113281 75 Z M 36.113281 60.390625 "/></clipPath><clipPath id="168d2a09f4"><path d="M 0 36.113281 L 14.609375 36.113281 L 14.609375 38.886719 L 0 38.886719 Z M 0 36.113281 "/></clipPath><clipPath id="53e31250d3"><path d="M 36.117188 36.113281 L 75 36.113281 L 75 38.882812 L 36.117188 38.882812 Z M 36.117188 36.113281 "/></clipPath><clipPath id="a90e2a71a8"><path d="M 21 2 L 30 2 L 30 17 L 21 17 Z M 21 2 "/></clipPath><clipPath id="c30596a6bc"><path d="M 21.53125 3.542969 L 24.082031 2.457031 L 29.804688 15.898438 L 27.253906 16.984375 Z M 21.53125 3.542969 "/></clipPath><clipPath id="855e9dc543"><path d="M 45 58 L 54 58 L 54 73 L 45 73 Z M 45 58 "/></clipPath><clipPath id="24d8f44687"><path d="M 45.195312 59.101562 L 47.746094 58.015625 L 53.472656 71.457031 L 50.921875 72.542969 Z M 45.195312 59.101562 "/></clipPath><clipPath id="5e6da881d4"><path d="M 2 45 L 17 45 L 17 54 L 2 54 Z M 2 45 "/></clipPath><clipPath id="ca1573e64b"><path d="M 3.542969 53.46875 L 2.457031 50.917969 L 15.898438 45.191406 L 16.984375 47.742188 Z M 3.542969 53.46875 "/></clipPath><clipPath id="ecb7c995d3"><path d="M 58 21 L 73 21 L 73 30 L 58 30 Z M 58 21 "/></clipPath><clipPath id="31acd0173b"><path d="M 59.105469 29.804688 L 58.019531 27.253906 L 71.457031 21.527344 L 72.546875 24.078125 Z M 59.105469 29.804688 "/></clipPath><clipPath id="8d4bedf0db"><path d="M 10 10 L 23 10 L 23 23 L 10 23 Z M 10 10 "/></clipPath><clipPath id="7d11d6b473"><path d="M 10.003906 11.964844 L 11.964844 10.003906 L 22.296875 20.332031 L 20.335938 22.292969 Z M 10.003906 11.964844 "/></clipPath><clipPath id="b3df478e29"><path d="M 52 52 L 65 52 L 65 65 L 52 65 Z M 52 52 "/></clipPath><clipPath id="034ee1c800"><path d="M 52.707031 54.664062 L 54.667969 52.707031 L 64.996094 63.035156 L 63.039062 64.996094 Z M 52.707031 54.664062 "/></clipPath><clipPath id="f230fdfc7a"><path d="M 10 52 L 23 52 L 23 65 L 10 65 Z M 10 52 "/></clipPath><clipPath id="8919f48328"><path d="M 11.964844 64.996094 L 10.003906 63.035156 L 20.335938 52.703125 L 22.296875 54.664062 Z M 11.964844 64.996094 "/></clipPath><clipPath id="f7a688a393"><path d="M 52 10 L 65 10 L 65 23 L 52 23 Z M 52 10 "/></clipPath><clipPath id="7d18ee5c2a"><path d="M 54.667969 22.292969 L 52.707031 20.332031 L 63.039062 10 L 64.996094 11.960938 Z M 54.667969 22.292969 "/></clipPath><clipPath id="a59bf732ac"><path d="M 2 22 L 17 22 L 17 31 L 2 31 Z M 2 22 "/></clipPath><clipPath id="5605903797"><path d="M 2.195312 24.78125 L 3.230469 22.207031 L 16.785156 27.664062 L 15.75 30.238281 Z M 2.195312 24.78125 "/></clipPath><clipPath id="b1fd005e5c"><path d="M 58 44 L 73 44 L 73 53 L 58 53 Z M 58 44 "/></clipPath><clipPath id="4a562afea5"><path d="M 58.21875 47.332031 L 59.253906 44.761719 L 72.804688 50.21875 L 71.769531 52.789062 Z M 58.21875 47.332031 "/></clipPath><clipPath id="681185776a"><path d="M 22 58 L 31 58 L 31 73 L 22 73 Z M 22 58 "/></clipPath><clipPath id="3eab38cd13"><path d="M 24.78125 72.800781 L 22.210938 71.765625 L 27.667969 58.214844 L 30.238281 59.25 Z M 24.78125 72.800781 "/></clipPath><clipPath id="71d4092a66"><path d="M 44 2 L 53 2 L 53 17 L 44 17 Z M 44 2 "/></clipPath><clipPath id="4ddc6eea46"><path d="M 47.335938 16.78125 L 44.761719 15.746094 L 50.21875 2.191406 L 52.789062 3.226562 Z M 47.335938 16.78125 "/></clipPath></defs><g id="6cff7433e1"><g clip-rule="nonzero" clip-path="url(#722d51b6c8)"><path style=" stroke:none;fill-rule:nonzero;fill:#ff7043;fill-opacity:1;" d="M 36.113281 0 L 38.886719 0 L 38.886719 14.609375 L 36.113281 14.609375 Z M 36.113281 0 "/></g><g clip-rule="nonzero" clip-path="url(#f11bb91d65)"><path style=" stroke:none;fill-rule:nonzero;fill:#ff7043;fill-opacity:1;" d="M 36.113281 60.390625 L 38.886719 60.390625 L 38.886719 75 L 36.113281 75 Z M 36.113281 60.390625 "/></g><g clip-rule="nonzero" clip-path="url(#168d2a09f4)"><path style=" stroke:none;fill-rule:nonzero;fill:#ff7043;fill-opacity:1;" d="M 0 38.886719 L 0 36.113281 L 14.609375 36.113281 L 14.609375 38.886719 Z M 0 38.886719 "/></g><g clip-rule="nonzero" clip-path="url(#53e31250d3)"><path style=" stroke:none;fill-rule:nonzero;fill:#ff7043;fill-opacity:1;" d="M 36.117188 38.882812 L 36.117188 36.113281 L 75.003906 36.113281 L 75.003906 38.882812 Z M 36.117188 38.882812 "/></g><g clip-rule="nonzero" clip-path="url(#a90e2a71a8)"><g clip-rule="nonzero" clip-path="url(#c30596a6bc)"><path style=" stroke:none;fill-rule:nonzero;fill:#ff7043;fill-opacity:1;" d="M 21.53125 3.542969 L 24.082031 2.457031 L 29.804688 15.898438 L 27.253906 16.984375 Z M 21.53125 3.542969 "/></g></g><g clip-rule="nonzero" clip-path="url(#855e9dc543)"><g clip-rule="nonzero" clip-path="url(#24d8f44687)"><path style=" stroke:none;fill-rule:nonzero;fill:#ff7043;fill-opacity:1;" d="M 45.195312 59.101562 L 47.746094 58.015625 L 53.472656 71.457031 L 50.921875 72.542969 Z M 45.195312 59.101562 "/></g></g><g clip-rule="nonzero" clip-path="url(#5e6da881d4)"><g clip-rule="nonzero" clip-path="url(#ca1573e64b)"><path style=" stroke:none;fill-rule:nonzero;fill:#ff7043;fill-opacity:1;" d="M 3.542969 53.46875 L 2.457031 50.917969 L 15.898438 45.191406 L 16.984375 47.742188 Z M 3.542969 53.46875 "/></g></g><g clip-rule="nonzero" clip-path="url(#ecb7c995d3)"><g clip-rule="nonzero" clip-path="url(#31acd0173b)"><path style=" stroke:none;fill-rule:nonzero;fill:#ff7043;fill-opacity:1;" d="M 59.105469 29.804688 L 58.019531 27.253906 L 71.457031 21.527344 L 72.542969 24.078125 Z M 59.105469 29.804688 "/></g></g><g clip-rule="nonzero" clip-path="url(#8d4bedf0db)"><g clip-rule="nonzero" clip-path="url(#7d11d6b473)"><path style=" stroke:none;fill-rule:nonzero;fill:#ff7043;fill-opacity:1;" d="M 10.003906 11.964844 L 11.964844 10.003906 L 22.292969 20.332031 L 20.335938 22.292969 Z M 10.003906 11.964844 "/></g></g><g clip-rule="nonzero" clip-path="url(#b3df478e29)"><g clip-rule="nonzero" clip-path="url(#034ee1c800)"><path style=" stroke:none;fill-rule:nonzero;fill:#ff7043;fill-opacity:1;" d="M 52.707031 54.664062 L 54.667969 52.707031 L 64.996094 63.035156 L 63.035156 64.996094 Z M 52.707031 54.664062 "/></g></g><g clip-rule="nonzero" clip-path="url(#f230fdfc7a)"><g clip-rule="nonzero" clip-path="url(#8919f48328)"><path style=" stroke:none;fill-rule:nonzero;fill:#ff7043;fill-opacity:1;" d="M 11.964844 64.996094 L 10.003906 63.035156 L 20.335938 52.703125 L 22.292969 54.664062 Z M 11.964844 64.996094 "/></g></g><g clip-rule="nonzero" clip-path="url(#f7a688a393)"><g clip-rule="nonzero" clip-path="url(#7d18ee5c2a)"><path style=" stroke:none;fill-rule:nonzero;fill:#ff7043;fill-opacity:1;" d="M 54.667969 22.292969 L 52.707031 20.332031 L 63.035156 10 L 64.996094 11.960938 Z M 54.667969 22.292969 "/></g></g><g clip-rule="nonzero" clip-path="url(#a59bf732ac)"><g clip-rule="nonzero" clip-path="url(#5605903797)"><path style=" stroke:none;fill-rule:nonzero;fill:#ff7043;fill-opacity:1;" d="M 2.195312 24.78125 L 3.230469 22.207031 L 16.785156 27.664062 L 15.75 30.238281 Z M 2.195312 24.78125 "/></g></g><g clip-rule="nonzero" clip-path="url(#b1fd005e5c)"><g clip-rule="nonzero" clip-path="url(#4a562afea5)"><path style=" stroke:none;fill-rule:nonzero;fill:#ff7043;fill-opacity:1;" d="M 58.21875 47.332031 L 59.253906 44.761719 L 72.804688 50.21875 L 71.769531 52.789062 Z M 58.21875 47.332031 "/></g></g><g clip-rule="nonzero" clip-path="url(#681185776a)"><g clip-rule="nonzero" clip-path="url(#3eab38cd13)"><path style=" stroke:none;fill-rule:nonzero;fill:#ff7043;fill-opacity:1;" d="M 24.78125 72.800781 L 22.210938 71.765625 L 27.664062 58.214844 L 30.238281 59.25 Z M 24.78125 72.800781 "/></g></g><g clip-rule="nonzero" clip-path="url(#71d4092a66)"><g clip-rule="nonzero" clip-path="url(#4ddc6eea46)"><path style=" stroke:none;fill-rule:nonzero;fill:#ff7043;fill-opacity:1;" d="M 47.335938 16.78125 L 44.761719 15.746094 L 50.21875 2.195312 L 52.789062 3.230469 Z M 47.335938 16.78125 "/></g></g></g></svg>