<svg xmlns="http://www.w3.org/2000/svg" xmlns:xlink="http://www.w3.org/1999/xlink" width="500" zoomAndPan="magnify" viewBox="0 0 375 374.999991" height="500" preserveAspectRatio="xMidYMid meet" version="1.2"><defs><clipPath id="85c82bc6e6"><path d="M 46.734375 143.5625 L 50.324219 143.5625 L 50.324219 162.46875 L 46.734375 162.46875 Z M 46.734375 143.5625 "/></clipPath><clipPath id="f4104abec2"><path d="M 46.734375 221.714844 L 50.324219 221.714844 L 50.324219 240.621094 L 46.734375 240.621094 Z M 46.734375 221.714844 "/></clipPath><clipPath id="3e0d33fc47"><path d="M 0 190.296875 L 18.90625 190.296875 L 18.90625 193.882812 L 0 193.882812 Z M 0 190.296875 "/></clipPath><clipPath id="772a8d9fbd"><path d="M 46.738281 190.296875 L 97.0625 190.296875 L 97.0625 193.882812 L 46.738281 193.882812 Z M 46.738281 190.296875 "/></clipPath><clipPath id="14ebcba56c"><path d="M 27 146 L 39 146 L 39 166 L 27 166 Z M 27 146 "/></clipPath><clipPath id="f6ca20f3fc"><path d="M 27.863281 148.148438 L 31.164062 146.742188 L 38.570312 164.136719 L 35.269531 165.539062 Z M 27.863281 148.148438 "/></clipPath><clipPath id="14ffc3f65d"><path d="M 58 218 L 70 218 L 70 238 L 58 238 Z M 58 218 "/></clipPath><clipPath id="5afc978534"><path d="M 58.488281 220.046875 L 61.789062 218.640625 L 69.199219 236.035156 L 65.898438 237.441406 Z M 58.488281 220.046875 "/></clipPath><clipPath id="f366a97bc0"><path d="M 3 202 L 22 202 L 22 213 L 3 213 Z M 3 202 "/></clipPath><clipPath id="b87061d6b8"><path d="M 4.585938 212.757812 L 3.179688 209.457031 L 20.574219 202.046875 L 21.980469 205.347656 Z M 4.585938 212.757812 "/></clipPath><clipPath id="edb21689c6"><path d="M 75 171 L 94 171 L 94 183 L 75 183 Z M 75 171 "/></clipPath><clipPath id="9f188d719e"><path d="M 76.488281 182.132812 L 75.082031 178.832031 L 92.476562 171.421875 L 93.882812 174.722656 Z M 76.488281 182.132812 "/></clipPath><clipPath id="2642fe41ec"><path d="M 12 156 L 29 156 L 29 173 L 12 173 Z M 12 156 "/></clipPath><clipPath id="da3e49ab64"><path d="M 12.945312 159.042969 L 15.484375 156.507812 L 28.851562 169.875 L 26.316406 172.414062 Z M 12.945312 159.042969 "/></clipPath><clipPath id="8d851e1250"><path d="M 68 211 L 85 211 L 85 228 L 68 228 Z M 68 211 "/></clipPath><clipPath id="3c3937907f"><path d="M 68.207031 214.304688 L 70.746094 211.769531 L 84.113281 225.136719 L 81.578125 227.675781 Z M 68.207031 214.304688 "/></clipPath><clipPath id="cf109243a3"><path d="M 12 211 L 29 211 L 29 228 L 12 228 Z M 12 211 "/></clipPath><clipPath id="ef16cb266f"><path d="M 15.484375 227.671875 L 12.945312 225.136719 L 26.316406 211.765625 L 28.851562 214.304688 Z M 15.484375 227.671875 "/></clipPath><clipPath id="f6e187992f"><path d="M 68 156 L 85 156 L 85 173 L 68 173 Z M 68 156 "/></clipPath><clipPath id="450f5f217c"><path d="M 70.746094 172.410156 L 68.207031 169.875 L 81.578125 156.503906 L 84.113281 159.042969 Z M 70.746094 172.410156 "/></clipPath><clipPath id="40cb3f1265"><path d="M 2 172 L 22 172 L 22 183 L 2 183 Z M 2 172 "/></clipPath><clipPath id="e3aa860b44"><path d="M 2.84375 175.632812 L 4.183594 172.304688 L 21.722656 179.363281 L 20.382812 182.691406 Z M 2.84375 175.632812 "/></clipPath><clipPath id="094f377bf8"><path d="M 75 201 L 95 201 L 95 212 L 75 212 Z M 75 201 "/></clipPath><clipPath id="a5680886d2"><path d="M 75.339844 204.816406 L 76.679688 201.488281 L 94.21875 208.550781 L 92.878906 211.878906 Z M 75.339844 204.816406 "/></clipPath><clipPath id="2f47048171"><path d="M 28 218 L 40 218 L 40 238 L 28 238 Z M 28 218 "/></clipPath><clipPath id="f40a1d69b6"><path d="M 32.070312 237.777344 L 28.742188 236.4375 L 35.804688 218.898438 L 39.132812 220.238281 Z M 32.070312 237.777344 "/></clipPath><clipPath id="f363679264"><path d="M 57 146 L 69 146 L 69 166 L 57 166 Z M 57 146 "/></clipPath><clipPath id="3d04319c4d"><path d="M 61.257812 165.277344 L 57.929688 163.9375 L 64.988281 146.402344 L 68.316406 147.742188 Z M 61.257812 165.277344 "/></clipPath></defs><g id="915f800a81"><g clip-rule="nonzero" clip-path="url(#85c82bc6e6)"><path style=" stroke:none;fill-rule:nonzero;fill:#ff7043;fill-opacity:1;" d="M 46.734375 143.5625 L 50.324219 143.5625 L 50.324219 162.46875 L 46.734375 162.46875 Z M 46.734375 143.5625 "/></g><g clip-rule="nonzero" clip-path="url(#f4104abec2)"><path style=" stroke:none;fill-rule:nonzero;fill:#ff7043;fill-opacity:1;" d="M 46.734375 221.714844 L 50.324219 221.714844 L 50.324219 240.621094 L 46.734375 240.621094 Z M 46.734375 221.714844 "/></g><g clip-rule="nonzero" clip-path="url(#3e0d33fc47)"><path style=" stroke:none;fill-rule:nonzero;fill:#ff7043;fill-opacity:1;" d="M 0 193.882812 L 0 190.296875 L 18.90625 190.296875 L 18.90625 193.882812 Z M 0 193.882812 "/></g><g clip-rule="nonzero" clip-path="url(#772a8d9fbd)"><path style=" stroke:none;fill-rule:nonzero;fill:#ff7043;fill-opacity:1;" d="M 46.738281 193.882812 L 46.738281 190.296875 L 97.066406 190.296875 L 97.066406 193.882812 Z M 46.738281 193.882812 "/></g><g clip-rule="nonzero" clip-path="url(#14ebcba56c)"><g clip-rule="nonzero" clip-path="url(#f6ca20f3fc)"><path style=" stroke:none;fill-rule:nonzero;fill:#ff7043;fill-opacity:1;" d="M 27.863281 148.148438 L 31.164062 146.742188 L 38.570312 164.132812 L 35.269531 165.539062 Z M 27.863281 148.148438 "/></g></g><g clip-rule="nonzero" clip-path="url(#14ffc3f65d)"><g clip-rule="nonzero" clip-path="url(#5afc978534)"><path style=" stroke:none;fill-rule:nonzero;fill:#ff7043;fill-opacity:1;" d="M 58.488281 220.046875 L 61.789062 218.640625 L 69.199219 236.035156 L 65.898438 237.441406 Z M 58.488281 220.046875 "/></g></g><g clip-rule="nonzero" clip-path="url(#f366a97bc0)"><g clip-rule="nonzero" clip-path="url(#b87061d6b8)"><path style=" stroke:none;fill-rule:nonzero;fill:#ff7043;fill-opacity:1;" d="M 4.585938 212.757812 L 3.179688 209.457031 L 20.574219 202.046875 L 21.980469 205.347656 Z M 4.585938 212.757812 "/></g></g><g clip-rule="nonzero" clip-path="url(#edb21689c6)"><g clip-rule="nonzero" clip-path="url(#9f188d719e)"><path style=" stroke:none;fill-rule:nonzero;fill:#ff7043;fill-opacity:1;" d="M 76.488281 182.132812 L 75.082031 178.832031 L 92.476562 171.421875 L 93.882812 174.722656 Z M 76.488281 182.132812 "/></g></g><g clip-rule="nonzero" clip-path="url(#2642fe41ec)"><g clip-rule="nonzero" clip-path="url(#da3e49ab64)"><path style=" stroke:none;fill-rule:nonzero;fill:#ff7043;fill-opacity:1;" d="M 12.945312 159.042969 L 15.484375 156.507812 L 28.851562 169.875 L 26.316406 172.414062 Z M 12.945312 159.042969 "/></g></g><g clip-rule="nonzero" clip-path="url(#8d851e1250)"><g clip-rule="nonzero" clip-path="url(#3c3937907f)"><path style=" stroke:none;fill-rule:nonzero;fill:#ff7043;fill-opacity:1;" d="M 68.207031 214.304688 L 70.746094 211.769531 L 84.113281 225.136719 L 81.578125 227.675781 Z M 68.207031 214.304688 "/></g></g><g clip-rule="nonzero" clip-path="url(#cf109243a3)"><g clip-rule="nonzero" clip-path="url(#ef16cb266f)"><path style=" stroke:none;fill-rule:nonzero;fill:#ff7043;fill-opacity:1;" d="M 15.484375 227.671875 L 12.945312 225.136719 L 26.316406 211.765625 L 28.851562 214.304688 Z M 15.484375 227.671875 "/></g></g><g clip-rule="nonzero" clip-path="url(#f6e187992f)"><g clip-rule="nonzero" clip-path="url(#450f5f217c)"><path style=" stroke:none;fill-rule:nonzero;fill:#ff7043;fill-opacity:1;" d="M 70.746094 172.410156 L 68.207031 169.875 L 81.578125 156.503906 L 84.113281 159.042969 Z M 70.746094 172.410156 "/></g></g><g clip-rule="nonzero" clip-path="url(#40cb3f1265)"><g clip-rule="nonzero" clip-path="url(#e3aa860b44)"><path style=" stroke:none;fill-rule:nonzero;fill:#ff7043;fill-opacity:1;" d="M 2.84375 175.632812 L 4.183594 172.304688 L 21.722656 179.363281 L 20.382812 182.691406 Z M 2.84375 175.632812 "/></g></g><g clip-rule="nonzero" clip-path="url(#094f377bf8)"><g clip-rule="nonzero" clip-path="url(#a5680886d2)"><path style=" stroke:none;fill-rule:nonzero;fill:#ff7043;fill-opacity:1;" d="M 75.339844 204.816406 L 76.679688 201.488281 L 94.21875 208.550781 L 92.878906 211.878906 Z M 75.339844 204.816406 "/></g></g><g clip-rule="nonzero" clip-path="url(#2f47048171)"><g clip-rule="nonzero" clip-path="url(#f40a1d69b6)"><path style=" stroke:none;fill-rule:nonzero;fill:#ff7043;fill-opacity:1;" d="M 32.070312 237.777344 L 28.742188 236.4375 L 35.804688 218.898438 L 39.132812 220.238281 Z M 32.070312 237.777344 "/></g></g><g clip-rule="nonzero" clip-path="url(#f363679264)"><g clip-rule="nonzero" clip-path="url(#3d04319c4d)"><path style=" stroke:none;fill-rule:nonzero;fill:#ff7043;fill-opacity:1;" d="M 61.257812 165.277344 L 57.929688 163.9375 L 64.988281 146.402344 L 68.316406 147.742188 Z M 61.257812 165.277344 "/></g></g></g></svg>